<svg xmlns="http://www.w3.org/2000/svg" width="129.6" height="28.68" viewBox="0 0 129.6 28.68"><defs><style>.a{fill:#fff;}</style></defs><title>ret</title><path class="a" d="M6.66,15.92a6.84,6.84,0,0,1,4.83,1.64A5.79,5.79,0,0,1,13.26,22V31.1H10.62v-2H10.5a5.27,5.27,0,0,1-4.56,2.52,5.9,5.9,0,0,1-4.06-1.44,4.57,4.57,0,0,1-1.64-3.6A4.37,4.37,0,0,1,2,22.91a7.28,7.28,0,0,1,4.61-1.35,8.15,8.15,0,0,1,4,.9v-.63a3.13,3.13,0,0,0-1.14-2.44,3.91,3.91,0,0,0-2.67-1,4.23,4.23,0,0,0-3.66,1.95L.72,18.8A6.78,6.78,0,0,1,6.66,15.92ZM3.09,26.6A2.2,2.2,0,0,0,4,28.4a3.38,3.38,0,0,0,2.15.72,4.39,4.39,0,0,0,3.1-1.29,4,4,0,0,0,1.37-3,5.67,5.67,0,0,0-3.6-1,4.69,4.69,0,0,0-2.81.81A2.4,2.4,0,0,0,3.09,26.6Z" transform="translate(-0.24 -9.38)"/><path class="a" d="M29.28,31.1H26.64v-2h-.12a4.92,4.92,0,0,1-1.94,1.8,5.53,5.53,0,0,1-2.71.72A5.44,5.44,0,0,1,17.71,30a6.18,6.18,0,0,1-1.45-4.4V16.4H19v9.06q.09,3.6,3.63,3.6a3.43,3.43,0,0,0,2.76-1.34,4.8,4.8,0,0,0,1.11-3.19V16.4h2.76Z" transform="translate(-0.24 -9.38)"/><path class="a" d="M40.41,31.58a6.36,6.36,0,0,1-3-.69,5.16,5.16,0,0,1-2.05-1.83h-.12v2H32.64V9.62H35.4V16.4l-.12,2h.12a5.16,5.16,0,0,1,2.05-1.83,6.53,6.53,0,0,1,7.88,1.59,8,8,0,0,1,2.07,5.55,8,8,0,0,1-2.07,5.55A6.31,6.31,0,0,1,40.41,31.58ZM40,29.06a4.3,4.3,0,0,0,3.33-1.5,5.41,5.41,0,0,0,1.35-3.81,5.48,5.48,0,0,0-1.35-3.81,4.48,4.48,0,0,0-6.69,0,5.56,5.56,0,0,0-1.32,3.81,5.6,5.6,0,0,0,1.32,3.84A4.38,4.38,0,0,0,40,29.06Z" transform="translate(-0.24 -9.38)"/><path class="a" d="M56.52,31.58a7,7,0,0,1-5.34-2.22,7.84,7.84,0,0,1-2.1-5.61,8,8,0,0,1,2-5.59A7.32,7.32,0,0,1,61.54,18,8.45,8.45,0,0,1,63.48,24l0,.3H51.9a4.79,4.79,0,0,0,1.44,3.48,4.65,4.65,0,0,0,7.44-1.32l2.46,1.2a7.34,7.34,0,0,1-2.75,2.91A7.57,7.57,0,0,1,56.52,31.58ZM52.11,22h8.43a3.65,3.65,0,0,0-1.25-2.53,4.35,4.35,0,0,0-3-1,4,4,0,0,0-2.69,1A4.58,4.58,0,0,0,52.11,22Z" transform="translate(-0.24 -9.38)"/><path class="a" d="M68.76,31.1H66V16.4h2.64v2.4h.12a4,4,0,0,1,1.72-2A4.81,4.81,0,0,1,73.05,16a5.17,5.17,0,0,1,2,.36L74.25,19a4.57,4.57,0,0,0-1.62-.21,3.58,3.58,0,0,0-2.72,1.26A4.21,4.21,0,0,0,68.76,23Z" transform="translate(-0.24 -9.38)"/><path class="a" d="M82.65,38.06a7.87,7.87,0,0,1-2.31-.32,7.18,7.18,0,0,1-2-.88,6.32,6.32,0,0,1-1.51-1.35,5.69,5.69,0,0,1-1-1.74l2.61-1.08a4.13,4.13,0,0,0,1.56,2.07,4.37,4.37,0,0,0,2.58.78,4.57,4.57,0,0,0,3.51-1.35,5.24,5.24,0,0,0,1.26-3.72V29.06H87.3a5.46,5.46,0,0,1-2.12,1.85,6.3,6.3,0,0,1-2.89.67,6.5,6.5,0,0,1-5-2.25,8.14,8.14,0,0,1-2-5.58,8,8,0,0,1,2-5.55,6.46,6.46,0,0,1,5-2.28,6.31,6.31,0,0,1,2.89.68,5.35,5.35,0,0,1,2.12,1.84h.12v-2h2.64V30.47a7.5,7.5,0,0,1-2,5.55A7.3,7.3,0,0,1,82.65,38.06Zm.09-9a4.23,4.23,0,0,0,3.33-1.47,5.45,5.45,0,0,0,1.35-3.84,5.48,5.48,0,0,0-1.35-3.81,4.25,4.25,0,0,0-3.33-1.5,4.3,4.3,0,0,0-3.33,1.5,5.48,5.48,0,0,0-1.35,3.81,5.41,5.41,0,0,0,1.35,3.81A4.3,4.3,0,0,0,82.74,29.06Z" transform="translate(-0.24 -9.38)"/><path class="a" d="M97,11.33A1.95,1.95,0,1,1,96.42,10,1.88,1.88,0,0,1,97,11.33Zm-.57,5.07V31.1H93.66V16.4Z" transform="translate(-0.24 -9.38)"/><path class="a" d="M100,16.4h2.64v2h.12a4.89,4.89,0,0,1,1.93-1.8,5.56,5.56,0,0,1,2.72-.72,5.42,5.42,0,0,1,4.15,1.55A6.16,6.16,0,0,1,113,21.86V31.1h-2.76V22q-.09-3.6-3.63-3.6a3.47,3.47,0,0,0-2.76,1.33,4.87,4.87,0,0,0-1.11,3.2V31.1H100Z" transform="translate(-0.24 -9.38)"/><path class="a" d="M122.88,31.58a7,7,0,0,1-5.34-2.22,7.84,7.84,0,0,1-2.1-5.61,8,8,0,0,1,2-5.59A7.32,7.32,0,0,1,127.9,18,8.45,8.45,0,0,1,129.84,24l0,.3H118.26a4.79,4.79,0,0,0,1.44,3.48,4.65,4.65,0,0,0,7.44-1.32l2.46,1.2a7.34,7.34,0,0,1-2.75,2.91A7.57,7.57,0,0,1,122.88,31.58ZM118.47,22h8.43a3.65,3.65,0,0,0-1.25-2.53,4.35,4.35,0,0,0-3-1,4,4,0,0,0-2.69,1A4.58,4.58,0,0,0,118.47,22Z" transform="translate(-0.24 -9.38)"/></svg>